<svg width="81" height="61" viewBox="0 0 81 61" fill="none" xmlns="http://www.w3.org/2000/svg">
<path d="M6.28869 0L4.05455 12.0246C3.09153 17.2358 3.87497 22.6055 6.28869 27.3061H15.2728V0H6.28869ZM18.3713 0V20.352H18.8819C19.9734 20.352 20.8537 19.4541 20.8537 18.3625V0H18.3713ZM23.9699 0V18.3625C23.9699 21.1618 21.6988 23.4329 18.8819 23.4329H18.3713V37.8166H20.9946V27.3061H24.4452C24.4452 27.3061 25.7833 24.6125 26.8396 22.4294C27.6671 20.8097 29.322 19.771 31.1529 19.771H45.2726C47.9134 19.771 50.0613 21.9013 50.0613 24.5421V40.6511H0L1.8609 52.7109H75.554L77.4026 41.6018L73.6878 0H23.9699ZM78.5646 4.11969C77.7019 4.19011 77.0681 4.94715 77.1561 5.79221L77.9132 14.1372C77.9836 14.9823 78.7406 15.6161 79.5857 15.5457C80.4484 15.4752 81.0646 14.7006 80.9941 13.8555L80.2547 5.52813C80.1843 4.73588 79.5153 4.11969 78.723 4.11969H78.5646ZM63.283 4.13729C67.1034 4.13729 70.1844 7.21826 70.1844 11.0387C70.1844 14.859 67.1034 17.94 63.283 17.94C59.4626 17.94 56.3816 14.859 56.3816 11.0387C56.3816 7.21826 59.4626 4.13729 63.283 4.13729ZM63.283 7.21826C61.1879 7.21826 59.4626 8.9436 59.4626 11.0387C59.4626 13.1513 61.1879 14.859 63.283 14.859C65.378 14.859 67.1034 13.1513 67.1034 11.0387C67.1034 8.9436 65.378 7.21826 63.283 7.21826ZM63.283 23.0456C67.9661 23.0456 71.7688 26.866 71.7688 31.5315C71.7688 36.2145 67.9661 40.0173 63.283 40.0173C58.5999 40.0173 54.7971 36.2145 54.7971 31.5315C54.7971 26.866 58.5999 23.0456 63.283 23.0456ZM63.283 26.1442C60.3077 26.1442 57.8957 28.5561 57.8957 31.5315C57.8957 34.5068 60.3077 36.9011 63.283 36.9011C66.2583 36.9011 68.6527 34.5068 68.6527 31.5315C68.6527 28.5561 66.2583 26.1442 63.283 26.1442ZM11.7534 29.5772V32.6758H15.2904V29.5772H11.7534ZM1.8609 56.1792V60.8446H75.5188V56.1792H1.8609Z" fill="#563B69"/>
</svg>
