<svg width="24" height="24" viewBox="0 0 24 24" fill="none" xmlns="http://www.w3.org/2000/svg">
<g clip-path="url(#clip0_0_147)">
<path d="M23.9069 12.8482L21.4284 8.5223C21.3506 8.38641 21.2329 8.28577 21.0977 8.22717C21.0886 8.22281 21.0784 8.21845 21.0667 8.21405L16.5506 6.50859C16.7287 6.00581 16.8259 5.46511 16.8259 4.90209C16.8259 2.24105 14.661 0.0761719 12 0.0761719C9.33893 0.0761719 7.17406 2.24105 7.17406 4.90214C7.17406 5.48503 7.27798 6.04411 7.46815 6.56184L2.94096 8.21123C2.94068 8.21133 2.94049 8.21147 2.94021 8.21156C2.78895 8.26687 2.65662 8.37394 2.57159 8.52234L0.093026 12.8482C-0.00878649 13.026 -0.0280521 13.2392 0.0402916 13.4323C0.108635 13.6254 0.257745 13.7791 0.448667 13.8532L2.47854 14.6412V20.0181C2.47854 20.3145 2.66449 20.5792 2.9434 20.6796L11.8383 23.8834C11.9153 23.9111 11.9959 23.925 12.0765 23.925C12.1572 23.925 12.2378 23.9111 12.3148 23.8834L21.2097 20.6797C21.4886 20.5792 21.6745 20.3146 21.6745 20.0182V14.5818L23.5513 13.8532C23.7422 13.7791 23.8914 13.6254 23.9597 13.4324C24.0281 13.2392 24.0088 13.026 23.9069 12.8482ZM12 1.48242C13.8856 1.48242 15.4197 3.0165 15.4197 4.90214C15.4197 6.78778 13.8856 8.32181 12 8.32181C10.1143 8.32181 8.58026 6.78773 8.58026 4.90209C8.58026 3.01645 10.1144 1.48242 12 1.48242ZM12 9.72806C13.592 9.72806 15.0062 8.95303 15.8857 7.76067L18.8052 8.86322L12.0647 11.3429L5.24056 8.87006L8.15093 7.80975C9.03279 8.97427 10.4299 9.72806 12 9.72806ZM3.49789 9.7343L11.0359 12.4658L9.14529 15.7206L1.71954 12.8381L3.49789 9.7343ZM3.88479 15.1871L9.19681 17.2491C9.28006 17.2814 9.36607 17.2969 9.45106 17.2969C9.69542 17.2969 9.93021 17.169 10.0593 16.9468L11.3634 14.7017V22.2177L3.88479 19.524V15.1871ZM20.2683 19.524L12.7696 22.2248V14.823L13.933 16.9331C14.103 17.2415 14.4749 17.3766 14.8032 17.2491L20.2683 15.1276V19.524ZM20.7492 13.4325C20.7275 13.4397 20.7063 13.4479 20.6855 13.4572L14.8676 15.7156L13.0774 12.4687L20.5036 9.73683L22.2804 12.838L20.7492 13.4325Z" fill="#1C1C1E"/>
<path d="M10.8966 6.53338C11.0339 6.67068 11.2139 6.7393 11.3938 6.7393C11.5737 6.7393 11.7537 6.67068 11.891 6.53334L14.0209 4.40343C14.2955 4.12884 14.2955 3.68366 14.0209 3.40907C13.7463 3.13448 13.3011 3.13448 13.0265 3.40907L11.3938 5.04182L10.9971 4.64521C10.7226 4.37066 10.2774 4.37062 10.0028 4.64521C9.72824 4.9198 9.72824 5.36498 10.0028 5.63957L10.8966 6.53338Z" fill="#1C1C1E"/>
</g>
<defs>
<clipPath id="clip0_0_147">
<rect width="24" height="24" fill="white"/>
</clipPath>
</defs>
</svg>
