<svg width="16" height="16" viewBox="0 0 16 16" fill="none" xmlns="http://www.w3.org/2000/svg">
<g clip-path="url(#clip0_0_262)">
<path d="M8.05402 5.02169C6.39727 5.02169 5.05402 6.36494 5.05402 8.02169C5.05402 9.67819 6.39727 11.0217 8.05402 11.0217C9.71077 11.0217 11.054 9.67844 11.054 8.02169C11.054 6.36494 9.71077 5.02169 8.05402 5.02169ZM8.05402 10.0217C6.95127 10.0217 6.03101 9.10269 6.03101 7.99992C6.03101 6.89716 6.92826 5.99992 8.03101 5.99992C9.13401 5.99992 10.031 6.89717 10.031 7.99992C10.031 9.10267 9.15702 10.0217 8.05402 10.0217ZM15.9948 7.88369C15.989 7.85844 15.9915 7.83173 15.984 7.80697C15.9808 7.79648 15.9743 7.79048 15.9705 7.78123C15.9653 7.76698 15.9665 7.75023 15.9593 7.73648C14.505 4.40673 11.3708 2.49023 8.03079 2.49023C4.69079 2.49023 1.49379 4.40323 0.0387891 7.73323C0.0325391 7.74725 0.0335391 7.76173 0.0285234 7.77775C0.0250391 7.7875 0.0177891 7.79298 0.0145391 7.80223C0.00678906 7.82748 0.00978906 7.85373 0.00503906 7.87923C-0.00419531 7.92423 -0.0126953 7.96798 -0.0126953 8.01348C-0.0126953 8.05948 -0.00419531 8.10198 0.00503906 8.14772C0.0100391 8.17272 0.00680469 8.19997 0.0145547 8.22397C0.0178047 8.23522 0.0250547 8.23997 0.0285391 8.25022C0.0337891 8.26397 0.0325391 8.28097 0.0387891 8.29472C1.49404 11.6237 4.65979 13.509 7.99979 13.509C11.34 13.509 14.505 11.6277 15.9598 8.29795C15.967 8.2837 15.9656 8.2687 15.971 8.25295C15.9745 8.2442 15.9813 8.2377 15.9843 8.22795C15.992 8.20345 15.9895 8.1767 15.995 8.1512C16.0038 8.10645 16.012 8.0627 16.012 8.01645C16.012 7.97245 16.0038 7.92895 15.9948 7.88369ZM7.99977 12.509C5.16702 12.509 2.37879 11.0157 1.00879 8.01397C2.36579 5.02222 5.19129 3.49047 8.03104 3.49047C10.8698 3.49047 13.6325 5.02397 14.99 8.01722C13.6335 11.008 10.8395 12.509 7.99977 12.509Z" fill="#636366"/>
</g>
<defs>
<clipPath id="clip0_0_262">
<rect width="16" height="16" fill="white"/>
</clipPath>
</defs>
</svg>
