<svg width="54" height="54" viewBox="0 0 54 54" fill="none" xmlns="http://www.w3.org/2000/svg">
<path fill-rule="evenodd" clip-rule="evenodd" d="M18.0002 15C18.0002 12.6131 18.9484 10.3239 20.6362 8.63604C22.324 6.94821 24.6132 6 27.0002 6C29.3871 6 31.6763 6.94821 33.3641 8.63604C35.052 10.3239 36.0002 12.6131 36.0002 15H18.0002ZM12.0002 15C12.0002 11.0218 13.5805 7.20644 16.3936 4.3934C19.2066 1.58035 23.0219 0 27.0002 0C30.9784 0 34.7937 1.58035 37.6068 4.3934C40.4198 7.20644 42.0002 11.0218 42.0002 15H51.0002C51.4169 15 51.8291 15.0868 52.2104 15.2549C52.5918 15.423 52.9339 15.6687 53.215 15.9763C53.4961 16.284 53.7101 16.6468 53.8432 17.0417C53.9763 17.4366 54.0257 17.8549 53.9882 18.27L51.4832 45.816C51.2796 48.0521 50.2475 50.1314 48.5896 51.6455C46.9316 53.1597 44.7675 53.9995 42.5222 54H11.4782C9.23282 53.9995 7.06874 53.1597 5.41079 51.6455C3.75283 50.1314 2.72075 48.0521 2.51717 45.816L0.012175 18.27C-0.0253318 17.8549 0.0240475 17.4366 0.157165 17.0417C0.290283 16.6468 0.504219 16.284 0.785336 15.9763C1.06645 15.6687 1.40858 15.423 1.78992 15.2549C2.17126 15.0868 2.58343 15 3.00018 15H12.0002Z" fill="#563B69"/>
</svg>
