<svg width="48" height="60" viewBox="0 0 48 60" fill="none" xmlns="http://www.w3.org/2000/svg">
<path d="M15.51 44.49C17.7639 46.7375 20.817 47.9995 24 47.9995C27.183 47.9995 30.2361 46.7375 32.49 44.49C34.7375 42.2361 35.9995 39.183 35.9995 36C35.9995 32.817 34.7375 29.7639 32.49 27.51L15.51 44.49ZM42 0.03L6 0C2.67 0 0 2.67 0 6V54C0 57.33 2.67 60 6 60H42C45.33 60 48 57.33 48 54V6C48 2.67 45.33 0.03 42 0.03ZM18 6C19.65 6 21 7.35 21 9C21 10.65 19.65 12 18 12C16.35 12 15 10.65 15 9C15 7.35 16.35 6 18 6ZM9 6C10.65 6 12 7.35 12 9C12 10.65 10.65 12 9 12C7.35 12 6 10.65 6 9C6 7.35 7.35 6 9 6ZM24 54C14.07 54 6 45.93 6 36C6 26.07 14.07 18 24 18C33.93 18 42 26.07 42 36C42 45.93 33.93 54 24 54Z" fill="#563B69"/>
</svg>
