<svg width="20" height="20" viewBox="0 0 20 20" fill="none" xmlns="http://www.w3.org/2000/svg">
<path d="M9.99967 14.1673C9.55765 14.1673 9.13372 13.9917 8.82116 13.6792C8.5086 13.3666 8.33301 12.9427 8.33301 12.5007C8.33301 11.5757 9.07467 10.834 9.99967 10.834C10.4417 10.834 10.8656 11.0096 11.1782 11.3221C11.4907 11.6347 11.6663 12.0586 11.6663 12.5007C11.6663 12.9427 11.4907 13.3666 11.1782 13.6792C10.8656 13.9917 10.4417 14.1673 9.99967 14.1673ZM14.9997 16.6673V8.33398H4.99967V16.6673H14.9997ZM14.9997 6.66732C15.4417 6.66732 15.8656 6.84291 16.1782 7.15547C16.4907 7.46803 16.6663 7.89196 16.6663 8.33398V16.6673C16.6663 17.1093 16.4907 17.5333 16.1782 17.8458C15.8656 18.1584 15.4417 18.334 14.9997 18.334H4.99967C4.55765 18.334 4.13372 18.1584 3.82116 17.8458C3.5086 17.5333 3.33301 17.1093 3.33301 16.6673V8.33398C3.33301 7.40898 4.07467 6.66732 4.99967 6.66732H5.83301V5.00065C5.83301 3.89558 6.27199 2.83577 7.0534 2.05437C7.8348 1.27297 8.89461 0.833984 9.99967 0.833984C10.5468 0.833984 11.0887 0.941758 11.5942 1.15115C12.0997 1.36055 12.559 1.66746 12.946 2.05437C13.3329 2.44128 13.6398 2.90061 13.8492 3.40614C14.0586 3.91166 14.1663 4.45348 14.1663 5.00065V6.66732H14.9997ZM9.99967 2.50065C9.33663 2.50065 8.70075 2.76404 8.23191 3.23288C7.76307 3.70173 7.49967 4.33761 7.49967 5.00065V6.66732H12.4997V5.00065C12.4997 4.33761 12.2363 3.70173 11.7674 3.23288C11.2986 2.76404 10.6627 2.50065 9.99967 2.50065Z" fill="#636366"/>
</svg>
