<svg width="24" height="24" viewBox="0 0 24 24" fill="none" xmlns="http://www.w3.org/2000/svg">
<path d="M12.6075 3.22457C12.438 3.08032 12.2226 3.0011 12 3.0011C11.7774 3.0011 11.562 3.08032 11.3925 3.22457L4.08 9.44057C3.97646 9.52866 3.89332 9.63821 3.83634 9.76163C3.77936 9.88504 3.7499 10.0194 3.75 10.1553V19.8746C3.75 19.974 3.78951 20.0694 3.85984 20.1397C3.93016 20.2101 4.02554 20.2496 4.125 20.2496H7.875C7.97446 20.2496 8.06984 20.2101 8.14017 20.1397C8.21049 20.0694 8.25 19.974 8.25 19.8746V14.6246C8.25 14.1273 8.44754 13.6504 8.79917 13.2987C9.15081 12.9471 9.62772 12.7496 10.125 12.7496H13.878C14.1242 12.7496 14.368 12.7981 14.5955 12.8923C14.823 12.9865 15.0297 13.1246 15.2038 13.2987C15.3779 13.4729 15.516 13.6796 15.6103 13.907C15.7045 14.1345 15.753 14.3783 15.753 14.6246V19.8746C15.753 19.974 15.7925 20.0694 15.8628 20.1397C15.9332 20.2101 16.0285 20.2496 16.128 20.2496H19.875C19.9745 20.2496 20.0698 20.2101 20.1402 20.1397C20.2105 20.0694 20.25 19.974 20.25 19.8746V10.1546C20.25 10.0188 20.2205 9.88457 20.1635 9.76128C20.1065 9.638 20.0234 9.52857 19.92 9.44057L12.6075 3.22457ZM10.4213 2.08232C10.862 1.70766 11.4216 1.50195 12 1.50195C12.5784 1.50195 13.138 1.70766 13.5787 2.08232L20.8913 8.29757C21.1604 8.52638 21.3766 8.81096 21.5249 9.13161C21.6732 9.45225 21.75 9.8013 21.75 10.1546V19.8746C21.75 20.3718 21.5525 20.8488 21.2008 21.2004C20.8492 21.552 20.3723 21.7496 19.875 21.7496H16.128C15.6307 21.7496 15.1538 21.552 14.8022 21.2004C14.4505 20.8488 14.253 20.3718 14.253 19.8746V14.6246C14.253 14.5251 14.2135 14.4297 14.1432 14.3594C14.0728 14.2891 13.9775 14.2496 13.878 14.2496H10.125C10.0255 14.2496 9.93016 14.2891 9.85983 14.3594C9.78951 14.4297 9.75 14.5251 9.75 14.6246V19.8746C9.75 20.3718 9.55246 20.8488 9.20083 21.2004C8.84919 21.552 8.37228 21.7496 7.875 21.7496H4.125C3.62772 21.7496 3.15081 21.552 2.79917 21.2004C2.44754 20.8488 2.25 20.3718 2.25 19.8746V10.1546C2.25002 9.8013 2.32683 9.45225 2.47511 9.13161C2.62339 8.81096 2.83959 8.52638 3.10875 8.29757L10.4213 2.08232Z" fill="#1C1C1E"/>
</svg>
