<svg width="48" height="40" viewBox="0 0 48 40" fill="none" xmlns="http://www.w3.org/2000/svg">
<path d="M31.2891 36.9756C31.2891 38.6457 32.6764 40 34.3873 40C36.0981 40 37.4855 38.6457 37.4855 36.9756C37.4855 35.3055 36.0981 33.9512 34.3873 33.9512C32.6764 33.9518 31.2891 35.3055 31.2891 36.9756Z" fill="#343B45"/>
<path d="M20.2613 40C21.9724 40 23.3595 38.6459 23.3595 36.9756C23.3595 35.3052 21.9724 33.9512 20.2613 33.9512C18.5502 33.9512 17.1631 35.3052 17.1631 36.9756C17.1631 38.6459 18.5502 40 20.2613 40Z" fill="#343B45"/>
<path d="M27.7844 21.3812V21.7806L27.4265 20.9818L27.2986 20.3826L26.915 19.4839L27.4265 20.7321L27.1708 20.0331L26.8638 18.9727H11.9346C11.0993 18.9727 10.2688 19.2098 9.59998 19.7008C8.23171 20.7074 7.75333 22.4254 8.30609 23.911L11.8308 33.4585C12.3686 34.9154 13.7962 35.8947 15.3829 35.8947H16.238C16.6795 34.1573 18.29 32.8703 20.2063 32.8703C22.1198 32.8703 23.7256 34.1527 24.1719 35.8847L30.3711 35.8774C30.8195 34.15 32.4232 32.8696 34.334 32.8696C36.2427 32.8696 37.8465 34.1473 38.2975 35.8701L39.9654 35.8674C40.4315 35.8674 40.8451 35.5696 40.9863 35.1339L42.4883 30.4494C42.704 29.7766 42.1888 29.0898 41.4647 29.0918L18.0792 29.1158C17.7966 29.1158 17.5414 28.9412 17.4445 28.6801L16.6863 26.6256C16.528 26.1973 16.8549 25.7449 17.321 25.7449H29.6769L29.0632 24.6265L28.8586 24.0273V23.8776L28.6029 23.2285L28.1936 22.5294L27.9379 21.8304L27.3626 20.6822L26.8126 19.3341L27.0039 19.7008L27.7844 21.3812Z" fill="#AE90C2"/>
<path d="M29.3464 25.8236L26.4551 18.9336H26.8642L29.8307 25.8236H29.3464Z" fill="white"/>
<path d="M0.063815 1.40095L4.41635 13.2761C4.95138 14.735 6.38175 15.7196 7.97318 15.7196H39.0347C39.4885 15.7196 39.8127 16.148 39.6789 16.5716L39.062 18.5462C38.9753 18.822 38.7126 19.0105 38.4178 19.0105H26.545L26.9542 19.5218L27.4649 20.77L28.1258 22.4675L27.5776 21.1194L27.1588 19.8213V20.1708L28.3106 22.7795L27.941 22.1554L28.973 24.2649L27.6483 21.2942L28.8265 24.2649L28.4188 23.1767L28.6012 23.7656L27.882 21.8184L27.4145 20.77L29.3069 25.0138C29.3069 25.0138 28.0229 22.3791 27.926 22.118L28.4886 23.516L29.5115 25.7828H41.256C42.9266 25.7828 44.3767 24.7349 44.8674 23.1767L47.8367 13.7064C48.184 12.5933 47.9704 11.3715 47.2614 10.4356C46.5503 9.50158 45.4175 8.94267 44.2253 8.94267H11.2372C10.6162 8.94267 10.0621 8.56161 9.85259 7.99071L7.17748 0.694149C7.02393 0.277793 6.61992 0 6.1661 0H1.07245C0.331326 0.00199851 -0.186637 0.720794 0.063815 1.40095Z" fill="#343B45"/>
<path d="M29.3844 25.8627L26.4932 18.9727H26.9023L29.8688 25.8627H29.3844Z" fill="white"/>
<path d="M21.4411 37.8444L20.5371 38.7271C20.5015 38.7619 20.4592 38.7895 20.4126 38.8083C20.3661 38.8271 20.3162 38.8368 20.2658 38.8368C20.2154 38.8368 20.1655 38.8271 20.1189 38.8083C20.0724 38.7895 20.0301 38.7619 19.9945 38.7271L19.0905 37.8444C18.9361 37.6937 18.8136 37.5148 18.7301 37.3179C18.6465 37.1211 18.6035 36.9101 18.6035 36.697C18.6035 36.4839 18.6465 36.2729 18.73 36.076C18.8135 35.8791 18.936 35.7002 19.0903 35.5496C19.2447 35.3989 19.4279 35.2793 19.6296 35.1978C19.8313 35.1162 20.0474 35.0742 20.2657 35.0742C20.484 35.0742 20.7002 35.1162 20.9018 35.1977C21.1035 35.2792 21.2868 35.3988 21.4411 35.5494C21.5955 35.7001 21.718 35.879 21.8015 36.0759C21.8851 36.2728 21.9281 36.4838 21.9281 36.6969C21.9281 36.91 21.8851 37.121 21.8015 37.3179C21.718 37.5148 21.5955 37.6937 21.4411 37.8444ZM21.1701 35.8143C20.9302 35.5802 20.605 35.4484 20.2658 35.4484C19.9266 35.4484 19.6014 35.5799 19.3615 35.814C19.1217 36.0482 18.987 36.3657 18.987 36.6968C18.987 37.0279 19.1217 37.3454 19.3615 37.5795L20.2658 38.462L21.1701 37.5797C21.2888 37.4638 21.3831 37.3262 21.4473 37.1748C21.5116 37.0233 21.5447 36.861 21.5447 36.697C21.5447 36.5331 21.5116 36.3707 21.4473 36.2193C21.3831 36.0678 21.2888 35.9302 21.1701 35.8143ZM20.2658 37.1963C20.1977 37.1978 20.13 37.186 20.0666 37.1616C20.0032 37.1372 19.9455 37.1007 19.8967 37.0542C19.848 37.0077 19.8093 36.9522 19.7829 36.8909C19.7564 36.8296 19.7428 36.7638 19.7428 36.6973C19.7428 36.6308 19.7563 36.5649 19.7828 36.5036C19.8092 36.4423 19.8478 36.3868 19.8965 36.3403C19.9452 36.2938 20.003 36.2572 20.0663 36.2328C20.1297 36.2083 20.1974 36.1965 20.2655 36.198C20.3992 36.2009 20.5263 36.2547 20.6198 36.348C20.7133 36.4412 20.7657 36.5665 20.7657 36.697C20.7657 36.8275 20.7134 36.9528 20.62 37.0461C20.5266 37.1394 20.3994 37.1933 20.2658 37.1963Z" fill="white"/>
<path d="M35.6609 37.7447L34.7569 38.6275C34.7212 38.6623 34.6789 38.6899 34.6324 38.7087C34.5858 38.7275 34.5359 38.7372 34.4855 38.7372C34.4351 38.7372 34.3852 38.7275 34.3387 38.7087C34.2921 38.6899 34.2498 38.6623 34.2142 38.6275L33.3102 37.7447C33.1558 37.5941 33.0334 37.4152 32.9498 37.2183C32.8663 37.0215 32.8233 36.8105 32.8232 36.5974C32.8232 36.3843 32.8662 36.1733 32.9497 35.9764C33.0333 35.7795 33.1557 35.6006 33.31 35.4499C33.4644 35.2993 33.6476 35.1797 33.8493 35.0982C34.051 35.0166 34.2671 34.9746 34.4854 34.9746C34.7037 34.9746 34.9199 35.0166 35.1216 35.0981C35.3232 35.1796 35.5065 35.2991 35.6609 35.4498C35.8152 35.6005 35.9377 35.7794 36.0213 35.9763C36.1048 36.1732 36.1478 36.3842 36.1478 36.5973C36.1478 36.8104 36.1048 37.0214 36.0213 37.2183C35.9377 37.4152 35.8152 37.5941 35.6609 37.7447ZM35.3898 35.7147C35.15 35.4806 34.8247 35.3488 34.4855 35.3488C34.1464 35.3488 33.8211 35.4803 33.5813 35.7144C33.3414 35.9485 33.2067 36.2661 33.2067 36.5972C33.2067 36.9282 33.3414 37.2458 33.5813 37.4799L34.4855 38.3624L35.3898 37.4801C35.5086 37.3642 35.6028 37.2266 35.6671 37.0751C35.7313 36.9237 35.7644 36.7613 35.7644 36.5974C35.7644 36.4335 35.7313 36.2711 35.6671 36.1197C35.6028 35.9682 35.5086 35.8306 35.3898 35.7147ZM34.4855 37.0967C34.4174 37.0982 34.3497 37.0864 34.2863 37.062C34.2229 37.0376 34.1652 37.0011 34.1165 36.9546C34.0677 36.9081 34.029 36.8526 34.0026 36.7913C33.9761 36.73 33.9625 36.6642 33.9625 36.5977C33.9625 36.5312 33.9761 36.4653 34.0025 36.404C34.0289 36.3427 34.0676 36.2872 34.1163 36.2407C34.165 36.1941 34.2227 36.1576 34.2861 36.1332C34.3494 36.1087 34.4172 36.0969 34.4853 36.0984C34.6189 36.1013 34.7461 36.1551 34.8396 36.2484C34.933 36.3416 34.9854 36.4669 34.9854 36.5974C34.9855 36.7279 34.9332 36.8532 34.8397 36.9465C34.7463 37.0398 34.6192 37.0937 34.4855 37.0967Z" fill="white"/>
</svg>
